<svg width="16" height="16" viewBox="0 0 16 16" fill="none" xmlns="http://www.w3.org/2000/svg">
<path d="M4.99829 6.25765H11.0012C12.3543 6.25765 13.4514 7.35475 13.4514 8.70785V12.2498C13.4514 13.6029 12.3543 14.7 11.0012 14.7H4.99829C3.64519 14.7 2.5481 13.6029 2.5481 12.2498V8.70785C2.5481 7.35475 3.64519 6.25765 4.99829 6.25765Z" stroke="#212121" stroke-width="1.1"/>
<path d="M7.99976 1.2998C8.90742 1.2998 9.56579 1.5064 10.0515 1.81836C10.538 2.13089 10.8902 2.57359 11.1443 3.10645C11.5863 4.03326 11.7128 5.18655 11.741 6.25195H4.25952C4.2877 5.18656 4.41424 4.03326 4.8562 3.10645C5.11031 2.57367 5.46164 2.13086 5.948 1.81836C6.4337 1.50631 7.09203 1.29985 7.99976 1.2998Z" stroke="#212121" stroke-width="1.1"/>
<path d="M8 9.83707V11.1326" stroke="#212121" stroke-width="1.1" stroke-linecap="round" stroke-linejoin="round"/>
</svg>
