<svg width="16" height="16" viewBox="0 0 16 16" fill="none" xmlns="http://www.w3.org/2000/svg">
<g clip-path="url(#clip0_32_6)">
<mask id="mask0_32_6" style="mask-type:luminance" maskUnits="userSpaceOnUse" x="0" y="0" width="16" height="16">
<path d="M0 1.90735e-06H16V16H0V1.90735e-06Z" fill="white"/>
</mask>
<g mask="url(#mask0_32_6)">
<path d="M6.875 6.87499C6.875 7.56534 6.31534 8.12499 5.625 8.12499H1.875C1.18466 8.12499 0.625 7.56534 0.625 6.87499V1.87499C0.625 1.18465 1.18466 0.624992 1.875 0.624992H5.625C6.31534 0.624992 6.875 1.18465 6.875 1.87499V6.87499Z" stroke="white" stroke-miterlimit="10"/>
<path d="M15.375 14.125C15.375 14.8153 14.8153 15.375 14.125 15.375H10.375C9.68466 15.375 9.125 14.8153 9.125 14.125V9.125C9.125 8.43466 9.68466 7.875 10.375 7.875H14.125C14.8153 7.875 15.375 8.43466 15.375 9.125V14.125Z" stroke="white" stroke-miterlimit="10"/>
<path d="M6.875 14.125C6.875 14.8153 6.31534 15.375 5.625 15.375H1.875C1.18466 15.375 0.625 14.8153 0.625 14.125V11.625C0.625 10.9346 1.18466 10.375 1.875 10.375H5.625C6.31534 10.375 6.875 10.9346 6.875 11.625V14.125Z" stroke="white" stroke-miterlimit="10"/>
<path d="M15.375 4.375C15.375 5.06534 14.8153 5.625 14.125 5.625H10.375C9.68466 5.625 9.125 5.06534 9.125 4.375V1.875C9.125 1.18466 9.68466 0.625 10.375 0.625H14.125C14.8153 0.625 15.375 1.18466 15.375 1.875V4.375Z" stroke="white" stroke-miterlimit="10"/>
</g>
</g>
<defs>
<clipPath id="clip0_32_6">
<rect width="16" height="16" fill="white"/>
</clipPath>
</defs>
</svg>
