<svg width="16" height="16" viewBox="0 0 16 16" fill="none" xmlns="http://www.w3.org/2000/svg">
<path d="M10.1811 7.96931C10.1811 9.15696 9.21832 10.1197 8.03068 10.1197C6.84303 10.1197 5.88025 9.15696 5.88025 7.96931C5.88025 6.78166 6.84303 5.81888 8.03068 5.81888C9.21832 5.81888 10.1811 6.78166 10.1811 7.96931Z" stroke="white" stroke-miterlimit="10" stroke-linecap="round" stroke-linejoin="round"/>
<path d="M12.644 12.0188C13.236 12.3523 13.9873 12.1447 14.3221 11.555C14.657 10.9653 14.4485 10.2169 13.8566 9.88332L13.8186 9.86179C13.4145 9.63228 13.1867 9.18059 13.2497 8.72016C13.2824 8.4822 13.2992 8.23926 13.2992 7.99236C13.2992 7.73222 13.2804 7.47647 13.2442 7.22638C13.1774 6.7648 13.4071 6.31054 13.8126 6.08023L13.8566 6.05526C14.4485 5.72172 14.657 4.97328 14.3221 4.38358C13.9873 3.7939 13.236 3.58626 12.644 3.91979L12.5901 3.95039C12.1799 4.18337 11.6716 4.13637 11.3033 3.84148C10.8977 3.51674 10.4434 3.25024 9.95314 3.05461C9.51691 2.88055 9.22876 2.46085 9.22876 1.99117V1.97885C9.22876 1.30017 8.67859 0.750031 7.99994 0.750031C7.3213 0.750031 6.77113 1.30017 6.77113 1.97885C6.77113 2.45068 6.48036 2.87183 6.04124 3.04444C5.54541 3.23933 5.08602 3.50666 4.67597 3.83331C4.30778 4.12666 3.8005 4.17231 3.39115 3.93982L3.35591 3.91979C2.76393 3.58626 2.0126 3.7939 1.67775 4.38358C1.3429 4.97328 1.55137 5.72172 2.14335 6.05526L2.15321 6.06088C2.56265 6.29343 2.79431 6.75233 2.72614 7.21824C2.68916 7.47091 2.66996 7.72939 2.66996 7.99236C2.66996 8.24424 2.68753 8.49203 2.72147 8.73456C2.78599 9.19546 2.55749 9.64813 2.15281 9.87795L2.14335 9.88332C1.55137 10.2169 1.3429 10.9653 1.67775 11.555C2.0126 12.1447 2.7639 12.3523 3.35588 12.0188" stroke="white" stroke-miterlimit="10" stroke-linecap="round" stroke-linejoin="round"/>
<path d="M4.65137 15.25C4.65137 13.5284 6.04868 12.1166 7.77234 12.1166H8.35032C10.074 12.1166 11.4713 13.5284 11.4713 15.25" stroke="white" stroke-miterlimit="10" stroke-linecap="round" stroke-linejoin="round"/>
</svg>
