<svg width="16" height="16" viewBox="0 0 16 16" fill="none" xmlns="http://www.w3.org/2000/svg">
<g clip-path="url(#clip0_32_211)">
<path d="M8.34821 11.5982H6.375" stroke="#212121" stroke-miterlimit="10"/>
<path d="M3.47363 11.5982C3.47363 11.1976 3.79843 10.8728 4.19908 10.8728C4.59973 10.8728 4.92453 11.1976 4.92453 11.5982C4.92453 11.9989 4.59973 12.3237 4.19908 12.3237C3.79843 12.3237 3.47363 11.9989 3.47363 11.5982Z" fill="#212121"/>
<path d="M12.2366 7.91296H6.375" stroke="#212121" stroke-miterlimit="10"/>
<path d="M3.47363 7.91292C3.47363 7.51227 3.79843 7.18747 4.19908 7.18747C4.59973 7.18747 4.92453 7.51227 4.92453 7.91292C4.92453 8.31357 4.59973 8.63837 4.19908 8.63837C3.79843 8.63837 3.47363 8.31357 3.47363 7.91292Z" fill="#212121"/>
<path d="M12.2366 4.43079H6.375" stroke="#212121" stroke-miterlimit="10"/>
<path d="M3.47363 4.4308C3.47363 4.03015 3.79843 3.70536 4.19908 3.70536C4.59973 3.70536 4.92453 4.03015 4.92453 4.4308C4.92453 4.83145 4.59973 5.15625 4.19908 5.15625C3.79843 5.15625 3.47363 4.83145 3.47363 4.4308Z" fill="#212121"/>
<path d="M12.1206 10.0023C10.9988 10.0023 10.0894 10.9117 10.0894 12.0335C10.0894 13.1553 10.9988 14.0648 12.1206 14.0648C13.2424 14.0648 14.1519 13.1553 14.1519 12.0335C14.1519 10.9117 13.2424 10.0023 12.1206 10.0023Z" stroke="#212121" stroke-miterlimit="10"/>
<path d="M9.01569 14.8482H2.31257C1.67151 14.8482 1.15186 14.3286 1.15186 13.6875V2.31249C1.15186 1.67146 1.67151 1.15178 2.31257 1.15178H13.6876C14.3286 1.15178 14.8483 1.67146 14.8483 2.31249V8.87053" stroke="#212121" stroke-miterlimit="10" stroke-linecap="round"/>
<path d="M13.5513 13.5514L15.0223 15.0223" stroke="#212121" stroke-miterlimit="10" stroke-linecap="round"/>
</g>
<defs>
<clipPath id="clip0_32_211">
<rect width="16" height="16" fill="white"/>
</clipPath>
</defs>
</svg>
