<svg width="179" height="30" viewBox="0 0 179 30" fill="none" xmlns="http://www.w3.org/2000/svg">
<g clip-path="url(#clip0_1_780)">
<path d="M24.7405 0H4.5318C2.03297 0 0 2.03297 0 4.5318V6.49108H29.2723V4.5318C29.2723 2.03297 27.2393 0 24.7405 0ZM4.5318 4.10301C4.06013 4.10301 3.67422 3.71888 3.67422 3.24543C3.67422 2.77219 4.06013 2.38784 4.5318 2.38784C5.00348 2.38784 5.38939 2.77219 5.38939 3.24543C5.38939 3.71888 5.00348 4.10301 4.5318 4.10301ZM8.20602 4.10301C7.73435 4.10301 7.34844 3.71888 7.34844 3.24543C7.34844 2.77219 7.73435 2.38784 8.20602 2.38784C8.6777 2.38784 9.06361 2.77219 9.06361 3.24543C9.06361 3.71888 8.6777 4.10301 8.20602 4.10301ZM11.8805 4.10301C11.4088 4.10301 11.0229 3.71888 11.0229 3.24543C11.0229 2.77219 11.4088 2.38784 11.8805 2.38784C12.3521 2.38784 12.7381 2.77219 12.7381 3.24543C12.7381 3.71888 12.3521 4.10301 11.8805 4.10301Z" fill="#0B2E58"/>
<path d="M0 24.7404C0 27.2392 2.03297 29.2722 4.5318 29.2722H24.7405C27.2393 29.2722 29.2723 27.2392 29.2723 24.7404V8.20596H0V24.7404ZM19.5411 13.4053C19.2061 13.0705 19.2061 12.5274 19.5411 12.1926C19.8761 11.8576 20.419 11.8576 20.754 12.1926L24.4282 15.8668C24.7632 16.2018 24.7632 16.7447 24.4282 17.0797L20.754 20.754C20.5865 20.9215 20.367 21.0052 20.1475 21.0052C19.9281 21.0052 19.7086 20.9215 19.5411 20.754C19.2063 20.4192 19.2063 19.8761 19.5411 19.5413L22.609 16.4734L19.5411 13.4053ZM12.0319 19.7639L15.7063 12.4153C15.918 11.9918 16.4333 11.8201 16.8567 12.0318C17.2804 12.2435 17.4521 12.7588 17.2404 13.1824L13.5659 20.5311C13.4159 20.8315 13.1128 21.0052 12.7984 21.0052C12.6695 21.0052 12.5386 20.9762 12.4156 20.9145C11.9919 20.7028 11.8202 20.1876 12.0319 19.7639ZM4.84402 15.8668L8.51824 12.1924C8.85323 11.8576 9.39615 11.8576 9.73114 12.1924C10.0659 12.5274 10.0659 13.0703 9.73114 13.4053L6.66326 16.4732L9.73092 19.5411C10.0659 19.8758 10.0659 20.419 9.73092 20.754C9.56364 20.9212 9.34411 21.005 9.12458 21.005C8.90527 21.005 8.68573 20.9212 8.51824 20.754L4.84402 17.0795C4.50903 16.7447 4.50903 16.2018 4.84402 15.8668Z" fill="#0B2E58"/>
</g>
<path d="M50.4712 23.3961C47.7152 23.3961 45.6265 22.6421 44.2052 21.1341C42.8012 19.6261 42.0992 17.5895 42.0992 15.0241C42.0992 13.1868 42.3939 11.6095 42.9832 10.2921C43.5899 8.95747 44.5085 7.9348 45.7392 7.22414C46.9699 6.49614 48.5385 6.13214 50.4452 6.13214C51.4159 6.13214 52.2999 6.21014 53.0972 6.36614C53.9119 6.5048 54.6659 6.69547 55.3592 6.93814V9.40814C54.6659 9.13081 53.9205 8.9228 53.1232 8.78414C52.3432 8.62814 51.5199 8.55014 50.6532 8.55014C48.5732 8.55014 47.0999 9.1048 46.2332 10.2141C45.3839 11.3235 44.9592 12.9268 44.9592 15.0241C44.9592 16.9828 45.4272 18.4735 46.3632 19.4961C47.2992 20.5015 48.7465 21.0041 50.7052 21.0041C51.5025 21.0041 52.2999 20.9435 53.0972 20.8221C53.9119 20.6835 54.6745 20.4755 55.3852 20.1981V22.6941C54.6919 22.9195 53.9379 23.0928 53.1232 23.2141C52.3259 23.3355 51.4419 23.3961 50.4712 23.3961ZM63.9587 23.3961C61.74 23.3961 60.1107 22.8415 59.0707 21.7321C58.048 20.6228 57.5367 19.0368 57.5367 16.9741C57.5367 14.9115 58.0567 13.3255 59.0967 12.2161C60.1367 11.1068 61.7574 10.5521 63.9587 10.5521C66.1774 10.5521 67.8067 11.1068 68.8467 12.2161C69.8867 13.3255 70.4067 14.9115 70.4067 16.9741C70.4067 19.0368 69.8867 20.6228 68.8467 21.7321C67.824 22.8415 66.1947 23.3961 63.9587 23.3961ZM63.9587 21.0041C65.2587 21.0041 66.1774 20.6921 66.7147 20.0681C67.2694 19.4268 67.5467 18.3955 67.5467 16.9741C67.5467 15.5528 67.2694 14.5301 66.7147 13.9061C66.1774 13.2821 65.2587 12.9701 63.9587 12.9701C62.676 12.9701 61.7574 13.2821 61.2027 13.9061C60.6654 14.5301 60.3967 15.5528 60.3967 16.9741C60.3967 18.3955 60.6654 19.4268 61.2027 20.0681C61.7574 20.6921 62.676 21.0041 63.9587 21.0041ZM78.2601 23.3961C77.1508 23.3961 76.1715 23.2055 75.3221 22.8241C74.4728 22.4428 73.8141 21.8101 73.3461 20.9261C72.8781 20.0421 72.6441 18.8548 72.6441 17.3641C72.6441 15.8908 72.8955 14.6515 73.3981 13.6461C73.9008 12.6235 74.5941 11.8521 75.4781 11.3321C76.3795 10.8121 77.3935 10.5521 78.5201 10.5521C79.2655 10.5521 79.9241 10.6388 80.4961 10.8121C81.0855 10.9855 81.6488 11.2541 82.1861 11.6181V5.61214H85.0201V23.1361H82.6021L82.4201 21.9141C81.8655 22.4168 81.2588 22.7895 80.6001 23.0321C79.9415 23.2748 79.1615 23.3961 78.2601 23.3961ZM79.0141 21.2641C80.2795 21.2641 81.3368 20.8308 82.1861 19.9641V13.8021C81.3715 13.0741 80.3488 12.7101 79.1181 12.7101C77.9221 12.7101 77.0208 13.1088 76.4141 13.9061C75.8075 14.7035 75.5041 15.8648 75.5041 17.3901C75.5041 18.8635 75.7815 19.8775 76.3361 20.4321C76.9081 20.9868 77.8008 21.2641 79.0141 21.2641ZM94.283 23.3961C92.1337 23.3961 90.4697 22.8675 89.291 21.8101C88.1124 20.7528 87.523 19.1321 87.523 16.9481C87.523 14.9721 88.0257 13.4121 89.031 12.2681C90.0364 11.1241 91.5617 10.5521 93.607 10.5521C95.479 10.5521 96.883 11.0461 97.819 12.0341C98.7724 13.0048 99.249 14.2615 99.249 15.8041V18.0921H90.227C90.3657 19.2881 90.799 20.1115 91.527 20.5621C92.255 21.0128 93.3644 21.2381 94.855 21.2381C95.479 21.2381 96.1204 21.1775 96.779 21.0561C97.4377 20.9348 98.0097 20.7788 98.495 20.5881V22.6681C97.9404 22.9108 97.299 23.0928 96.571 23.2141C95.8604 23.3355 95.0977 23.3961 94.283 23.3961ZM90.227 16.2461H96.753V15.3881C96.753 14.5388 96.519 13.8801 96.051 13.4121C95.583 12.9268 94.7944 12.6841 93.685 12.6841C92.3677 12.6841 91.4577 12.9701 90.955 13.5421C90.4697 14.1141 90.227 15.0155 90.227 16.2461ZM115.15 23.3961C112.845 23.3961 111.051 22.8415 109.768 21.7321C108.503 20.6228 107.87 19.0195 107.87 16.9221V6.39214H110.704V16.8181C110.704 18.2221 111.085 19.2708 111.848 19.9641C112.628 20.6575 113.729 21.0041 115.15 21.0041C116.554 21.0041 117.637 20.6575 118.4 19.9641C119.18 19.2708 119.57 18.2221 119.57 16.8181V6.39214H122.378V16.9221C122.378 19.0195 121.745 20.6228 120.48 21.7321C119.215 22.8415 117.438 23.3961 115.15 23.3961ZM130.226 23.3961C128.908 23.3961 127.92 23.0495 127.262 22.3561C126.62 21.6455 126.3 20.6835 126.3 19.4701V13.0221H124.48V10.8121H126.3V7.97814L129.108 7.12014V10.8121H132.384L132.202 13.0221H129.108V19.3141C129.108 20.0248 129.272 20.5275 129.602 20.8221C129.931 21.0995 130.468 21.2381 131.214 21.2381C131.682 21.2381 132.176 21.1515 132.696 20.9781V22.9801C132.02 23.2575 131.196 23.3961 130.226 23.3961ZM135.903 8.23814V5.89814H138.997V8.23814H135.903ZM136.137 23.1361V12.9701H134.265L134.525 10.8121H138.971V23.1361H136.137ZM145.345 23.3961C144.34 23.3961 143.577 23.1535 143.057 22.6681C142.537 22.1655 142.277 21.3421 142.277 20.1981V5.61214H145.111V19.9381C145.111 20.4235 145.198 20.7528 145.371 20.9261C145.545 21.0995 145.805 21.1861 146.151 21.1861C146.567 21.1861 146.966 21.1341 147.347 21.0301V23.0841C147.018 23.2055 146.697 23.2835 146.385 23.3181C146.091 23.3701 145.744 23.3961 145.345 23.3961ZM149.69 8.23814V5.89814H152.784V8.23814H149.69ZM149.924 23.1361V12.9701H148.052L148.312 10.8121H152.758V23.1361H149.924ZM160.771 23.3961C159.453 23.3961 158.465 23.0495 157.807 22.3561C157.165 21.6455 156.845 20.6835 156.845 19.4701V13.0221H155.025V10.8121H156.845V7.97814L159.653 7.12014V10.8121H162.929L162.747 13.0221H159.653V19.3141C159.653 20.0248 159.817 20.5275 160.147 20.8221C160.476 21.0995 161.013 21.2381 161.759 21.2381C162.227 21.2381 162.721 21.1515 163.241 20.9781V22.9801C162.565 23.2575 161.741 23.3961 160.771 23.3961ZM167.022 27.7121C166.086 27.7121 165.289 27.5908 164.63 27.3481V25.2421C164.925 25.3461 165.194 25.4155 165.436 25.4501C165.696 25.4848 165.956 25.5021 166.216 25.5021C166.754 25.5021 167.187 25.4155 167.516 25.2421C167.846 25.0688 168.132 24.7915 168.374 24.4101C168.634 24.0461 168.912 23.5695 169.206 22.9801L163.72 10.8121H166.658L170.61 19.9641L174.614 10.8121H177.526L172.508 22.4341C172.075 23.4741 171.607 24.3841 171.104 25.1641C170.619 25.9615 170.047 26.5855 169.388 27.0361C168.747 27.4868 167.958 27.7121 167.022 27.7121Z" fill="#0B2E58"/>
<defs>
<clipPath id="clip0_1_780">
<rect width="29.2723" height="29.2723" fill="white"/>
</clipPath>
</defs>
</svg>
