<svg width="123" height="20" viewBox="0 0 123 20" fill="none" xmlns="http://www.w3.org/2000/svg">
<g clip-path="url(#clip0_35_8)">
<path d="M16.9037 0H3.09631C1.38901 0 0 1.38901 0 3.09631V4.43497H20V3.09631C20 1.38901 18.611 0 16.9037 0ZM3.09631 2.80334C2.77405 2.80334 2.51038 2.54089 2.51038 2.21741C2.51038 1.89407 2.77405 1.63147 3.09631 1.63147C3.41858 1.63147 3.68225 1.89407 3.68225 2.21741C3.68225 2.54089 3.41858 2.80334 3.09631 2.80334ZM5.60669 2.80334C5.28442 2.80334 5.02075 2.54089 5.02075 2.21741C5.02075 1.89407 5.28442 1.63147 5.60669 1.63147C5.92896 1.63147 6.19263 1.89407 6.19263 2.21741C6.19263 2.54089 5.92896 2.80334 5.60669 2.80334ZM8.11722 2.80334C7.79495 2.80334 7.53128 2.54089 7.53128 2.21741C7.53128 1.89407 7.79495 1.63147 8.11722 1.63147C8.43948 1.63147 8.70316 1.89407 8.70316 2.21741C8.70316 2.54089 8.43948 2.80334 8.11722 2.80334Z" fill="white"/>
<path d="M0 16.9037C0 18.611 1.38901 20 3.09631 20H16.9037C18.611 20 20 18.611 20 16.9037V5.60669H0V16.9037ZM13.3513 9.15909C13.1224 8.93036 13.1224 8.55927 13.3513 8.33054C13.5802 8.10165 13.9511 8.10165 14.18 8.33054L16.6904 10.8409C16.9193 11.0698 16.9193 11.4407 16.6904 11.6696L14.18 14.18C14.0656 14.2944 13.9156 14.3517 13.7656 14.3517C13.6157 14.3517 13.4657 14.2944 13.3513 14.18C13.1226 13.9513 13.1226 13.5802 13.3513 13.3514L15.4474 11.2553L13.3513 9.15909ZM8.22067 13.5036L10.7312 8.48267C10.8759 8.19336 11.2279 8.07602 11.5172 8.22067C11.8066 8.36533 11.924 8.71735 11.7793 9.00681L9.2688 14.0277C9.16626 14.2329 8.9592 14.3517 8.74435 14.3517C8.65631 14.3517 8.56689 14.3318 8.48282 14.2897C8.19336 14.1451 8.07602 13.793 8.22067 13.5036ZM3.30963 10.8409L5.82001 8.33038C6.04889 8.10165 6.41983 8.10165 6.64871 8.33038C6.87744 8.55927 6.87744 8.93021 6.64871 9.15909L4.55261 11.2552L6.64856 13.3513C6.87744 13.58 6.87744 13.9511 6.64856 14.18C6.53427 14.2943 6.38428 14.3515 6.23428 14.3515C6.08444 14.3515 5.93445 14.2943 5.82001 14.18L3.30963 11.6695C3.08075 11.4407 3.08075 11.0698 3.30963 10.8409Z" fill="white"/>
</g>
<path d="M34.57 16.18C32.662 16.18 31.216 15.658 30.232 14.614C29.26 13.57 28.774 12.16 28.774 10.384C28.774 9.112 28.978 8.02 29.386 7.108C29.806 6.184 30.442 5.476 31.294 4.984C32.146 4.48 33.232 4.228 34.552 4.228C35.224 4.228 35.836 4.282 36.388 4.39C36.952 4.486 37.474 4.618 37.954 4.786V6.496C37.474 6.304 36.958 6.16 36.406 6.064C35.866 5.956 35.296 5.902 34.696 5.902C33.256 5.902 32.236 6.286 31.636 7.054C31.048 7.822 30.754 8.932 30.754 10.384C30.754 11.74 31.078 12.772 31.726 13.48C32.374 14.176 33.376 14.524 34.732 14.524C35.284 14.524 35.836 14.482 36.388 14.398C36.952 14.302 37.48 14.158 37.972 13.966V15.694C37.492 15.85 36.97 15.97 36.406 16.054C35.854 16.138 35.242 16.18 34.57 16.18ZM43.9075 16.18C42.3715 16.18 41.2435 15.796 40.5235 15.028C39.8155 14.26 39.4615 13.162 39.4615 11.734C39.4615 10.306 39.8215 9.208 40.5415 8.44C41.2615 7.672 42.3835 7.288 43.9075 7.288C45.4435 7.288 46.5715 7.672 47.2915 8.44C48.0115 9.208 48.3715 10.306 48.3715 11.734C48.3715 13.162 48.0115 14.26 47.2915 15.028C46.5835 15.796 45.4555 16.18 43.9075 16.18ZM43.9075 14.524C44.8075 14.524 45.4435 14.308 45.8155 13.876C46.1995 13.432 46.3915 12.718 46.3915 11.734C46.3915 10.75 46.1995 10.042 45.8155 9.61C45.4435 9.178 44.8075 8.962 43.9075 8.962C43.0195 8.962 42.3835 9.178 41.9995 9.61C41.6275 10.042 41.4415 10.75 41.4415 11.734C41.4415 12.718 41.6275 13.432 41.9995 13.876C42.3835 14.308 43.0195 14.524 43.9075 14.524ZM53.8085 16.18C53.0405 16.18 52.3625 16.048 51.7745 15.784C51.1865 15.52 50.7305 15.082 50.4065 14.47C50.0825 13.858 49.9205 13.036 49.9205 12.004C49.9205 10.984 50.0945 10.126 50.4425 9.43C50.7905 8.722 51.2705 8.188 51.8825 7.828C52.5065 7.468 53.2085 7.288 53.9885 7.288C54.5045 7.288 54.9605 7.348 55.3565 7.468C55.7645 7.588 56.1545 7.774 56.5265 8.026V3.868H58.4885V16H56.8145L56.6885 15.154C56.3045 15.502 55.8845 15.76 55.4285 15.928C54.9725 16.096 54.4325 16.18 53.8085 16.18ZM54.3305 14.704C55.2065 14.704 55.9385 14.404 56.5265 13.804V9.538C55.9625 9.034 55.2545 8.782 54.4025 8.782C53.5745 8.782 52.9505 9.058 52.5305 9.61C52.1105 10.162 51.9005 10.966 51.9005 12.022C51.9005 13.042 52.0925 13.744 52.4765 14.128C52.8725 14.512 53.4905 14.704 54.3305 14.704ZM64.9013 16.18C63.4133 16.18 62.2613 15.814 61.4453 15.082C60.6293 14.35 60.2213 13.228 60.2213 11.716C60.2213 10.348 60.5693 9.268 61.2653 8.476C61.9613 7.684 63.0173 7.288 64.4333 7.288C65.7293 7.288 66.7013 7.63 67.3493 8.314C68.0093 8.986 68.3393 9.856 68.3393 10.924V12.508H62.0933C62.1893 13.336 62.4893 13.906 62.9933 14.218C63.4973 14.53 64.2653 14.686 65.2973 14.686C65.7293 14.686 66.1733 14.644 66.6293 14.56C67.0853 14.476 67.4813 14.368 67.8173 14.236V15.676C67.4333 15.844 66.9893 15.97 66.4853 16.054C65.9933 16.138 65.4653 16.18 64.9013 16.18ZM62.0933 11.23H66.6113V10.636C66.6113 10.048 66.4493 9.592 66.1253 9.268C65.8013 8.932 65.2553 8.764 64.4873 8.764C63.5753 8.764 62.9453 8.962 62.5973 9.358C62.2613 9.754 62.0933 10.378 62.0933 11.23ZM79.3477 16.18C77.7517 16.18 76.5097 15.796 75.6217 15.028C74.7457 14.26 74.3077 13.15 74.3077 11.698V4.408H76.2697V11.626C76.2697 12.598 76.5337 13.324 77.0617 13.804C77.6017 14.284 78.3637 14.524 79.3477 14.524C80.3197 14.524 81.0697 14.284 81.5977 13.804C82.1377 13.324 82.4077 12.598 82.4077 11.626V4.408H84.3517V11.698C84.3517 13.15 83.9137 14.26 83.0377 15.028C82.1617 15.796 80.9317 16.18 79.3477 16.18ZM89.7846 16.18C88.8726 16.18 88.1886 15.94 87.7326 15.46C87.2886 14.968 87.0666 14.302 87.0666 13.462V8.998H85.8066V7.468H87.0666V5.506L89.0106 4.912V7.468H91.2786L91.1526 8.998H89.0106V13.354C89.0106 13.846 89.1246 14.194 89.3526 14.398C89.5806 14.59 89.9526 14.686 90.4686 14.686C90.7926 14.686 91.1346 14.626 91.4946 14.506V15.892C91.0266 16.084 90.4566 16.18 89.7846 16.18ZM93.7153 5.686V4.066H95.8573V5.686H93.7153ZM93.8773 16V8.962H92.5813L92.7613 7.468H95.8393V16H93.8773ZM100.252 16.18C99.5561 16.18 99.0281 16.012 98.6681 15.676C98.3081 15.328 98.1281 14.758 98.1281 13.966V3.868H100.09V13.786C100.09 14.122 100.15 14.35 100.27 14.47C100.39 14.59 100.57 14.65 100.81 14.65C101.098 14.65 101.374 14.614 101.638 14.542V15.964C101.41 16.048 101.188 16.102 100.972 16.126C100.768 16.162 100.528 16.18 100.252 16.18ZM103.26 5.686V4.066H105.402V5.686H103.26ZM103.422 16V8.962H102.126L102.306 7.468H105.384V16H103.422ZM110.931 16.18C110.019 16.18 109.335 15.94 108.879 15.46C108.435 14.968 108.213 14.302 108.213 13.462V8.998H106.953V7.468H108.213V5.506L110.157 4.912V7.468H112.425L112.299 8.998H110.157V13.354C110.157 13.846 110.271 14.194 110.499 14.398C110.727 14.59 111.099 14.686 111.615 14.686C111.939 14.686 112.281 14.626 112.641 14.506V15.892C112.173 16.084 111.603 16.18 110.931 16.18ZM115.259 19.168C114.611 19.168 114.059 19.084 113.603 18.916V17.458C113.807 17.53 113.993 17.578 114.161 17.602C114.341 17.626 114.521 17.638 114.701 17.638C115.073 17.638 115.373 17.578 115.601 17.458C115.829 17.338 116.027 17.146 116.195 16.882C116.375 16.63 116.567 16.3 116.771 15.892L112.973 7.468H115.007L117.743 13.804L120.515 7.468H122.531L119.057 15.514C118.757 16.234 118.433 16.864 118.085 17.404C117.749 17.956 117.353 18.388 116.897 18.7C116.453 19.012 115.907 19.168 115.259 19.168Z" fill="white"/>
<defs>
<clipPath id="clip0_35_8">
<rect width="20" height="20" fill="white"/>
</clipPath>
</defs>
</svg>
