<?xml version="1.0" standalone="no"?>
<!DOCTYPE svg PUBLIC "-//W3C//DTD SVG 20010904//EN"
 "http://www.w3.org/TR/2001/REC-SVG-20010904/DTD/svg10.dtd">
<svg version="1.0" xmlns="http://www.w3.org/2000/svg"
 width="1595.000000pt" height="461.000000pt" viewBox="0 0 1595.000000 461.000000"
 preserveAspectRatio="xMidYMid meet">

<g transform="translate(0.000000,461.000000) scale(0.100000,-0.100000)"
fill="#000000" stroke="none">
<path d="M10493 4476 l-363 -81 0 -312 c0 -172 3 -313 8 -313 4 0 102 22 217
48 116 27 281 64 368 83 l157 34 0 312 c0 245 -3 313 -12 312 -7 -1 -176 -38
-375 -83z"/>
<path d="M350 2390 l0 -1890 1890 0 1890 0 0 1890 0 1890 -1890 0 -1890 0 0
-1890z m2078 1135 c110 -7 252 -37 390 -81 l112 -36 0 -294 c0 -162 -2 -294
-5 -294 -3 0 -41 18 -85 40 -165 83 -364 131 -542 131 -86 0 -118 -4 -152 -20
-53 -23 -81 -61 -81 -110 0 -81 72 -129 315 -211 154 -52 312 -126 395 -184
216 -155 304 -390 250 -672 -47 -246 -238 -434 -511 -504 -168 -43 -430 -49
-626 -15 -100 17 -231 54 -339 96 l-79 30 0 298 0 298 97 -49 c118 -59 279
-112 405 -134 115 -20 304 -15 360 9 52 22 80 70 75 125 -9 84 -80 131 -347
230 -183 68 -239 94 -331 153 -194 125 -288 296 -289 525 0 307 213 557 551
645 87 23 234 38 309 33 25 -2 82 -6 128 -9z"/>
<path d="M7650 4175 c-74 -19 -231 -55 -348 -81 l-213 -48 3 -1240 3 -1241 27
-96 c77 -283 237 -439 528 -517 81 -21 118 -25 245 -26 171 0 278 17 405 65
l80 31 0 294 c0 162 -1 294 -2 294 -2 0 -32 -10 -68 -21 -36 -11 -106 -23
-155 -26 -125 -8 -193 12 -256 75 -80 80 -79 71 -79 719 l0 563 280 0 280 0 0
310 0 310 -280 0 -280 0 0 335 c0 313 -1 335 -17 334 -10 -1 -79 -16 -153 -34z"/>
<path d="M5804 3565 c-353 -62 -606 -253 -698 -526 -70 -209 -57 -424 37 -604
44 -84 172 -209 270 -264 103 -58 232 -113 403 -171 232 -79 304 -121 345
-201 51 -100 -10 -210 -131 -239 -68 -16 -296 -7 -400 15 -146 32 -360 109
-503 181 l-47 24 2 -341 3 -342 85 -34 c47 -19 144 -50 215 -68 402 -106 780
-97 1072 24 232 96 397 297 444 541 18 97 16 301 -5 385 -72 288 -257 446
-706 601 -336 116 -399 161 -388 276 6 55 25 80 83 112 36 19 55 21 195 20
223 -1 398 -42 618 -144 l82 -39 0 333 0 333 -137 46 c-221 74 -305 88 -548
92 -152 3 -232 0 -291 -10z"/>
<path d="M12278 3570 c-138 -23 -278 -94 -385 -193 l-32 -30 -9 24 c-5 13 -17
57 -27 97 l-17 72 -319 0 -319 0 0 -1716 c0 -1630 1 -1716 18 -1712 9 3 173
40 364 84 l348 79 0 418 c0 229 2 417 5 417 3 0 26 -16 52 -37 62 -46 190
-108 273 -130 98 -26 307 -23 425 6 297 72 540 298 665 618 175 447 157 1071
-43 1468 -60 120 -111 191 -206 285 -183 182 -378 261 -633 259 -62 -1 -134
-5 -160 -9z m87 -642 c163 -41 278 -191 332 -432 22 -102 22 -365 -1 -471 -48
-221 -161 -378 -313 -435 -43 -16 -80 -22 -144 -22 -134 0 -225 36 -302 121
l-37 41 0 534 0 534 40 35 c106 97 272 134 425 95z"/>
<path d="M14533 3565 c-288 -52 -516 -204 -684 -456 -168 -251 -250 -584 -236
-953 15 -381 124 -671 336 -889 96 -99 182 -163 296 -220 161 -80 305 -115
515 -124 294 -12 642 52 852 158 l58 29 0 295 c0 162 -2 295 -5 295 -3 0 -31
-13 -63 -29 -171 -86 -413 -136 -657 -135 -184 1 -281 21 -373 77 -67 40 -152
130 -182 193 -25 51 -60 175 -53 187 2 4 335 7 740 7 l735 0 -5 243 c-3 187
-9 269 -26 362 -57 321 -171 549 -363 731 -128 121 -283 197 -465 229 -104 18
-320 18 -420 0z m307 -581 c64 -19 130 -62 164 -107 58 -77 101 -198 108 -302
l3 -50 -390 0 -390 0 3 45 c12 170 103 328 224 391 79 40 189 49 278 23z"/>
<path d="M9630 3557 c-116 -28 -207 -87 -281 -183 -23 -30 -44 -52 -46 -50 -3
2 -14 44 -24 93 -11 48 -22 96 -25 106 -5 16 -29 17 -315 17 l-309 0 0 -1285
0 -1285 370 0 370 0 0 853 0 853 29 47 c37 57 107 110 186 138 70 25 258 37
318 21 l37 -10 0 333 0 333 -32 12 c-49 18 -214 22 -278 7z"/>
<path d="M10130 2255 l0 -1285 375 0 375 0 0 1285 0 1285 -375 0 -375 0 0
-1285z"/>
</g>
</svg>
