<svg width="120" height="31" viewBox="0 0 120 31" fill="none" xmlns="http://www.w3.org/2000/svg">
<g clip-path="url(#clip0_120_69)">
<g clip-path="url(#clip1_120_69)">
<g clip-path="url(#clip2_120_69)">
<path d="M12.9521 30.2396C20.0681 30.2396 25.8707 24.437 25.8707 17.3014C25.8707 10.1854 20.0681 4.38281 12.9521 4.38281C5.81649 4.38281 0.013916 10.1854 0.013916 17.3014C0.013916 24.437 5.81649 30.2396 12.9521 30.2396Z" fill="#F19521"/>
<path d="M3.64024 26.3189C1.73872 24.3585 0.444901 21.7709 0.092041 18.9284C1.033 18.7716 2.03277 18.4383 3.54222 16.5564L9.77612 5.46094C8.22741 12.2045 3.26778 19.7321 3.64024 26.3189Z" fill="white"/>
<path d="M17.1671 0.859375C15.3635 5.50536 5.07181 29.7154 17.2455 25.4223C4.03284 31.4406 6.93412 22.7367 8.79643 17.4046C11.9329 8.75955 14.5206 6.85799 17.1671 0.859375Z" fill="white" stroke="#231F20" stroke-width="0.685556"/>
<path d="M2.60181 21.1104C7.91431 19.5225 34.9865 16.8761 25.7141 9.13281C36.9664 18.3267 27.89 19.5617 22.2836 20.2674C13.1092 21.2869 9.16889 20.8359 2.60181 21.1104Z" stroke="#231F20" stroke-width="0.685556"/>
<path d="M40.4361 16.5005H38.8874V6.11071H34.5159V4.8757H44.7096V6.11071H40.4164V16.5005H40.4361ZM46.8464 10.7175C46.8464 9.60012 47.1992 8.91397 47.9049 8.69836C48.6106 8.48271 49.4928 8.36509 50.5514 8.36509C51.8452 8.36509 52.845 8.52191 53.5507 8.83556C54.2564 9.1492 54.6092 9.95293 54.6092 11.2272V16.52H53.2958L53.3743 15.6771C52.9822 16.1084 52.5117 16.3828 51.9628 16.4809C51.414 16.5789 50.8258 16.6377 50.2181 16.6377C49.0616 16.6377 48.1598 16.4809 47.5129 16.1868C46.8464 15.8928 46.5327 15.1871 46.5327 14.0697C46.5327 12.9915 46.8856 12.3053 47.5717 12.0309C48.2578 11.7565 49.14 11.6193 50.1986 11.6193C50.3554 11.6193 50.5318 11.6193 50.6886 11.6193C50.8651 11.6193 51.0219 11.6389 51.1787 11.6389C51.414 11.6584 51.6296 11.6977 51.8648 11.7173C52.0805 11.7565 52.2961 11.7957 52.5117 11.8741C52.6685 11.9133 52.7862 11.9917 52.9038 12.0897C53.0018 12.1878 53.0998 12.3053 53.1782 12.423V11.4428C53.1782 10.443 53.0214 9.81573 52.7078 9.5805C52.3941 9.34527 51.6492 9.20807 50.4926 9.20807C50.375 9.20807 50.2573 9.20807 50.1005 9.20807C49.9633 9.20807 49.826 9.22761 49.6888 9.22761C49.5124 9.24723 49.3164 9.26686 49.14 9.30602C48.9635 9.34527 48.8067 9.42368 48.689 9.50209C48.5518 9.5805 48.4538 9.67853 48.395 9.81573C48.3362 9.93339 48.3166 10.0706 48.297 10.2078C48.2774 10.247 48.2774 10.2862 48.2774 10.3254V10.5607C48.2774 10.5998 48.2774 10.6391 48.297 10.6979L46.8464 10.7175ZM48.4734 15.3243C48.8067 15.5595 49.3556 15.6575 50.1397 15.6575H50.571C50.7082 15.6575 50.8651 15.6575 51.0219 15.6379C51.5708 15.6183 52.1 15.5007 52.5705 15.3243C53.041 15.1283 53.2763 14.7361 53.2763 14.1285C53.2763 13.4032 53.0214 12.9522 52.5117 12.7759C52.002 12.619 51.3943 12.5406 50.669 12.5406H49.9633C49.826 12.5406 49.6888 12.5406 49.5516 12.5602C49.3164 12.5798 49.1007 12.619 48.8851 12.6778C48.6695 12.7366 48.4931 12.815 48.3362 12.9327C48.2382 13.0111 48.1598 13.0895 48.101 13.2071C48.0421 13.3247 48.0226 13.4423 48.003 13.5796C47.9834 13.6384 47.9834 13.6972 47.9834 13.756V13.9324C47.9637 14.6382 48.1402 15.089 48.4734 15.3243ZM62.8623 9.32564H59.2553V14.3245C59.2553 14.795 59.3337 15.1086 59.4905 15.3046C59.6473 15.5007 60.0198 15.5987 60.5687 15.5987C61.196 15.5987 61.5684 15.4615 61.7057 15.1871C61.8429 14.9126 61.9017 14.5793 61.9017 14.1481V13.5991H63.2347C63.2347 14.4421 63.0975 15.1478 62.8034 15.7359C62.5094 16.3044 61.7645 16.5984 60.5687 16.5984C59.5297 16.5984 58.8044 16.4416 58.4123 16.1084C58.0202 15.7752 57.8242 15.1871 57.8242 14.3245V9.32564H56.6088V8.34549H57.8242V6.36555H59.2553V8.34549H62.8623V9.32564ZM69.0765 16.5005H67.1162L63.9992 8.36509H65.4303L68.116 15.5791L70.684 8.36509H72.213L69.0765 16.5005ZM74.2125 10.7175C74.2125 9.60012 74.5654 8.91397 75.2711 8.69836C75.9769 8.48271 76.859 8.36509 77.9176 8.36509C79.2114 8.36509 80.2112 8.52191 80.9169 8.83556C81.6226 9.1492 81.9755 9.95293 81.9755 11.2272V16.52H80.6621L80.7405 15.6771C80.3484 16.1084 79.878 16.3828 79.329 16.4809C78.7801 16.5789 78.192 16.6377 77.5844 16.6377C76.4277 16.6377 75.526 16.4809 74.8791 16.1868C74.2125 15.8928 73.8989 15.1871 73.8989 14.0697C73.8989 12.9915 74.2518 12.3053 74.9379 12.0309C75.624 11.7565 76.5061 11.6193 77.5647 11.6193C77.7216 11.6193 77.898 11.6193 78.0548 11.6193C78.2313 11.6193 78.3881 11.6389 78.5449 11.6389C78.7801 11.6584 78.9957 11.6977 79.2311 11.7173C79.4467 11.7565 79.6623 11.7957 79.878 11.8741C80.0348 11.9133 80.1524 11.9917 80.27 12.0897C80.3681 12.1878 80.466 12.3053 80.5444 12.423V11.4428C80.5444 10.443 80.3876 9.81573 80.074 9.5805C79.7603 9.34527 79.0154 9.20807 77.8588 9.20807C77.7412 9.20807 77.6235 9.20807 77.4667 9.20807C77.3295 9.20807 77.1923 9.22761 77.055 9.22761C76.8787 9.24723 76.6826 9.26686 76.5061 9.30602C76.3297 9.34527 76.1729 9.42368 76.0553 9.50209C75.918 9.5805 75.8201 9.67853 75.7612 9.81573C75.7024 9.93339 75.6828 10.0706 75.6633 10.2078C75.6436 10.247 75.6436 10.2862 75.6436 10.3254V10.5607C75.6436 10.5998 75.6436 10.6391 75.6633 10.6979L74.2125 10.7175ZM75.8201 15.3243C76.1533 15.5595 76.7022 15.6575 77.4863 15.6575H77.9176C78.0548 15.6575 78.2116 15.6575 78.3685 15.6379C78.9173 15.6183 79.4467 15.5007 79.9171 15.3243C80.3876 15.1283 80.6228 14.7361 80.6228 14.1285C80.6228 13.4032 80.3681 12.9522 79.8583 12.7759C79.3486 12.619 78.741 12.5406 78.0157 12.5406H77.3099C77.1727 12.5406 77.0355 12.5406 76.8982 12.5602C76.663 12.5798 76.4474 12.619 76.2318 12.6778C76.0161 12.7366 75.8396 12.815 75.6828 12.9327C75.5849 13.0111 75.5063 13.0895 75.4476 13.2071C75.3888 13.3247 75.3692 13.4423 75.3495 13.5796C75.33 13.6384 75.33 13.6972 75.33 13.756V13.9324C75.33 14.6382 75.4868 15.089 75.8201 15.3243ZM93.0317 8.05143C92.9726 7.18889 92.7969 6.6204 92.4833 6.32635C92.1688 6.03229 91.5029 5.89507 90.4635 5.89507H89.7385C89.562 5.89507 89.3657 5.89507 89.1506 5.89507C88.9347 5.89507 88.699 5.91468 88.4642 5.91468C88.1703 5.93428 87.8961 5.97349 87.621 6.0127C87.3468 6.0519 87.1308 6.13031 86.974 6.22833C86.7589 6.34595 86.6021 6.50277 86.5035 6.69881C86.4058 6.89484 86.3278 7.11048 86.2884 7.30651C86.2687 7.40453 86.2687 7.48294 86.2687 7.58096C86.2687 7.67897 86.2687 7.75738 86.2687 7.8358C86.2687 8.48271 86.3861 8.95322 86.6218 9.28648C86.8566 9.61966 87.4059 9.81573 88.2483 9.85498L89.2089 9.89414C89.5225 9.91376 89.8362 9.91376 90.1301 9.91376C91.4044 9.93339 92.5021 10.0902 93.4045 10.3842C94.306 10.6782 94.7568 11.5605 94.7568 13.0503C94.7568 13.9324 94.5999 14.697 94.306 15.3243C94.0121 15.9515 93.2477 16.3241 92.0317 16.4416C91.1893 16.4809 90.3263 16.52 89.484 16.52C88.0914 16.52 86.9354 16.3632 86.0331 16.0496C85.1316 15.7359 84.6807 14.8538 84.6807 13.3835V13.2463C84.6807 13.2071 84.6807 13.1483 84.7003 13.1091C84.7003 13.0699 84.7003 13.0111 84.7003 12.9719C84.7003 12.9327 84.7003 12.8738 84.7003 12.8347H86.1513C86.1513 13.8932 86.3278 14.5989 86.6603 14.9126C86.9937 15.2458 87.7778 15.4027 89.0127 15.4027H90.2869C91.3847 15.4027 92.1499 15.2851 92.581 15.0499C93.012 14.8145 93.228 14.1873 93.228 13.2071C93.228 12.423 93.0908 11.9133 92.8355 11.6584C92.581 11.4036 92.012 11.2467 91.1302 11.2272C90.9142 11.2076 90.7188 11.2076 90.5226 11.2076C90.3263 11.2076 90.1301 11.2076 89.9347 11.2076C88.5233 11.1683 87.3073 10.992 86.2884 10.6979C85.2688 10.4039 84.7396 9.48246 84.7396 7.93381C84.7396 6.52238 85.1513 5.64023 85.9748 5.30698C86.7983 4.95411 87.9149 4.77768 89.3074 4.77768H89.6794C91.071 4.77768 92.2279 4.91491 93.1294 5.20896C94.0318 5.503 94.4825 6.38516 94.4825 7.87501V8.05143H93.0317ZM97.9523 9.16882C98.4228 8.52191 99.5205 8.20826 101.246 8.20826C103.03 8.20826 104.205 8.48271 104.735 9.012C105.265 9.56087 105.539 10.5998 105.539 12.1289C105.539 13.4619 105.382 14.5401 105.049 15.383C104.715 16.2064 103.598 16.6181 101.657 16.6181C99.991 16.6181 98.8341 16.3828 98.1871 15.932C97.5598 15.4811 97.2462 14.4814 97.2462 12.9719V12.2074C97.2462 10.8351 97.4818 9.81573 97.9523 9.16882ZM98.697 12.8738V13.2463C98.697 13.3835 98.697 13.5207 98.7167 13.6384C98.7364 13.9717 98.7955 14.3049 98.8735 14.5989C98.9524 14.893 99.0697 15.1283 99.266 15.3046C99.4228 15.4419 99.6182 15.5203 99.8539 15.5595C100.089 15.5987 100.344 15.6183 100.599 15.6379H101.442C102.246 15.6379 102.873 15.5399 103.324 15.3439C103.755 15.1478 104.009 14.6577 104.068 13.8932C104.088 13.7364 104.088 13.5796 104.088 13.4228C104.088 13.2659 104.088 13.1091 104.088 12.9522C104.108 12.7954 104.108 12.6386 104.108 12.4818V12.0113C104.108 11.0115 104.009 10.3058 103.794 9.87452C103.578 9.4433 102.911 9.22761 101.755 9.22761H101.442C100.226 9.22761 99.4811 9.38443 99.1674 9.71769C98.8735 10.051 98.7167 10.7763 98.7167 11.9329L98.697 12.8738ZM112.655 9.34527H110.184V16.5005H108.773V9.34527H107.342V8.34549H108.773V7.14968C108.773 6.20872 109.028 5.56181 109.518 5.22856C110.008 4.89531 110.773 4.71887 111.772 4.71887C111.851 4.71887 111.909 4.71887 111.988 4.71887C112.066 4.71887 112.145 4.71887 112.223 4.71887C112.302 4.71887 112.361 4.71887 112.439 4.71887C112.518 4.71887 112.596 4.71887 112.655 4.71887V5.73825C112.576 5.71864 112.498 5.71864 112.4 5.71864C112.322 5.71864 112.223 5.71864 112.145 5.71864H111.615C111.067 5.71864 110.694 5.81666 110.479 6.03229C110.263 6.24794 110.165 6.58119 110.165 7.01247V8.32588H112.635L112.655 9.34527ZM119.614 9.32564H116.006V14.3245C116.006 14.795 116.085 15.1086 116.242 15.3046C116.399 15.5007 116.772 15.5987 117.32 15.5987C117.947 15.5987 118.32 15.4615 118.457 15.1871C118.594 14.9126 118.654 14.5793 118.654 14.1481V13.5991H119.986C119.986 14.4421 119.849 15.1478 119.555 15.7359C119.261 16.3044 118.516 16.5984 117.32 16.5984C116.281 16.5984 115.556 16.4416 115.164 16.1084C114.772 15.7752 114.576 15.1871 114.576 14.3245V9.32564H113.36V8.34549H114.576V6.36555H116.006V8.34549H119.614V9.32564Z" fill="black"/>
<path d="M40.0839 24.7712H39.535C39.535 24.5165 39.4763 24.34 39.3782 24.2812C39.2802 24.2224 39.0058 24.1832 38.5549 24.1832C38.1432 24.1832 37.8884 24.2224 37.7708 24.2812C37.6531 24.34 37.5943 24.5165 37.5943 24.7712C37.5943 25.1634 37.7708 25.3594 38.1432 25.379L38.5941 25.3986L39.1626 25.4182C39.8487 25.4574 40.182 25.8103 40.182 26.4963C40.182 26.9276 40.0644 27.2021 39.8487 27.3785C39.6135 27.5353 39.2018 27.6137 38.5941 27.6137C37.9668 27.6137 37.5552 27.5353 37.3199 27.3785C37.0846 27.2217 36.967 26.9473 36.967 26.5551V26.3591H37.5355V26.5356C37.5355 26.7904 37.5943 26.9473 37.7315 27.0257C37.8492 27.1041 38.104 27.1433 38.4765 27.1433C38.9274 27.1433 39.2214 27.1041 39.3782 27.0061C39.5155 26.9276 39.5939 26.7316 39.5939 26.4572C39.5939 26.0651 39.4175 25.8691 39.045 25.8691C38.2021 25.8691 37.6531 25.7907 37.3787 25.6535C37.1042 25.5162 36.9867 25.2222 36.9867 24.7712C36.9867 24.34 37.0846 24.0655 37.3003 23.9283C37.5159 23.7911 37.9276 23.7127 38.5549 23.7127C39.5547 23.7127 40.0644 24.0068 40.0644 24.6144L40.0839 24.7712ZM43.7694 26.2023H44.3183V26.3983C44.3183 27.2021 43.789 27.6137 42.7304 27.6137C42.0443 27.6137 41.5934 27.4765 41.3778 27.2217C41.1621 26.9668 41.0446 26.4376 41.0446 25.6338C41.0446 24.8889 41.1621 24.3792 41.3778 24.1048C41.5934 23.8303 42.0247 23.7127 42.652 23.7127C43.2597 23.7127 43.691 23.8107 43.9066 23.9871C44.1223 24.1636 44.2398 24.4968 44.2398 25.0065H43.691V24.9085C43.691 24.6144 43.6126 24.4184 43.4754 24.3204C43.3381 24.2224 43.0441 24.1832 42.6128 24.1832C42.2011 24.1832 41.9267 24.2812 41.809 24.4576C41.6915 24.634 41.6326 25.0653 41.6326 25.6926C41.6326 26.3199 41.6915 26.712 41.8287 26.8884C41.9659 27.0648 42.2795 27.1433 42.7696 27.1433C43.1813 27.1433 43.4557 27.0845 43.5733 26.9668C43.7106 26.8689 43.7694 26.614 43.7694 26.2023ZM48.3958 23.7715V27.5549H47.8469L47.8861 27.0648L47.8665 27.0452C47.6704 27.4177 47.2588 27.6137 46.6315 27.6137C45.7493 27.6137 45.318 27.1825 45.318 26.3004V23.7911H45.8669V26.3004C45.8669 26.6336 45.9257 26.8689 46.0434 26.9864C46.161 27.1041 46.3766 27.1629 46.7099 27.1629C47.1411 27.1629 47.4352 27.0845 47.6117 26.908C47.7685 26.7316 47.8469 26.4179 47.8469 25.9671V23.8107L48.3958 23.7715ZM50.16 22.1641V27.5549H49.6112V22.1641H50.16ZM51.3363 23.7715H51.8852L51.8655 24.242L51.8852 24.2616C52.0812 23.8891 52.4928 23.7127 53.1202 23.7127C53.6887 23.7127 54.0611 23.8499 54.2767 24.1439C54.4924 24.4184 54.5904 24.9477 54.5904 25.7122C54.5904 26.4179 54.4924 26.908 54.2767 27.1825C54.0611 27.4569 53.6887 27.5942 53.1397 27.5942C52.5124 27.5942 52.1008 27.4177 51.9048 27.0845H51.8852V29.1428H51.3363V23.7715ZM52.9634 24.1832C52.5124 24.1832 52.238 24.2812 52.1008 24.4772C51.9636 24.6733 51.9048 25.085 51.9048 25.7122C51.9048 26.3004 51.9832 26.6728 52.1204 26.8689C52.2576 27.0648 52.5517 27.1629 53.0025 27.1629C53.4142 27.1629 53.6887 27.0648 53.8259 26.8884C53.9631 26.6924 54.0219 26.3199 54.0219 25.7319C54.0219 25.085 53.9631 24.6733 53.8259 24.4772C53.6887 24.2812 53.4142 24.1832 52.9634 24.1832ZM57.6682 23.7715V24.2224H56.2175V26.5356C56.2175 26.9473 56.3939 27.1433 56.7468 27.1433C57.0997 27.1433 57.276 26.9668 57.276 26.5944V26.4179V26.2023H57.7857V26.4767C57.7857 27.2217 57.4328 27.5942 56.7271 27.5942C56.0018 27.5942 55.6294 27.2805 55.6294 26.6728V24.2224H55.1001V23.7715H55.6294V22.8698H56.1783V23.7715H57.6682ZM59.0599 22.1641V22.7913H58.511V22.1641H59.0599ZM59.0599 23.7715V27.5549H58.511V23.7715H59.0599ZM60.2362 23.7715H60.7654L60.7459 24.2812L60.7654 24.3008C60.9419 23.9087 61.3535 23.7127 62.0201 23.7127C62.5689 23.7127 62.9218 23.8107 63.1178 23.9871C63.3139 24.1832 63.4119 24.536 63.4119 25.085V27.5353H62.863V24.9869C62.863 24.6537 62.8042 24.4381 62.6866 24.34C62.5689 24.2224 62.3337 24.1636 61.9808 24.1636C61.1967 24.1636 60.8243 24.536 60.8243 25.2613V27.5353H60.2753V23.7715H60.2362ZM67.7638 23.7715V27.7902C67.7638 28.3391 67.6462 28.7115 67.4109 28.9272C67.1757 29.1232 66.7445 29.2408 66.1171 29.2408C65.5486 29.2408 65.1762 29.1624 64.9606 28.9859C64.7645 28.8096 64.6469 28.4959 64.6469 28.0059H65.1762C65.1762 28.339 65.235 28.5351 65.3526 28.6331C65.4702 28.7312 65.7251 28.7703 66.1367 28.7703C66.5484 28.7703 66.8424 28.7115 66.9797 28.5744C67.1169 28.4567 67.1953 28.2018 67.1953 27.8294V27.0648H67.1757C67.0385 27.4177 66.6268 27.5942 65.9408 27.5942C65.3918 27.5942 64.9997 27.4569 64.7841 27.1825C64.5684 26.908 64.4705 26.3983 64.4705 25.673C64.4705 24.9085 64.5684 24.3988 64.7841 24.1243C64.9997 23.8499 65.3918 23.7127 65.9799 23.7127C66.6072 23.7127 66.9993 23.9087 67.1953 24.2812H67.215L67.1953 23.7715H67.7638ZM66.1171 24.1832C65.6859 24.1832 65.4114 24.2812 65.2742 24.4576C65.1369 24.634 65.0782 25.0457 65.0782 25.6535C65.0782 26.2807 65.1369 26.6728 65.2742 26.8689C65.4114 27.0452 65.6859 27.1433 66.1171 27.1433C66.5484 27.1433 66.8424 27.0452 66.9797 26.8296C67.1169 26.6335 67.1953 26.2023 67.1953 25.5554C67.1953 24.9869 67.1169 24.6144 66.9797 24.4381C66.8424 24.2812 66.5484 24.1832 66.1171 24.1832ZM73.1548 23.7715V24.2224H71.704V26.5356C71.704 26.9473 71.8805 27.1433 72.2334 27.1433C72.5863 27.1433 72.7626 26.9668 72.7626 26.5944V26.4179V26.2023H73.2723V26.4767C73.2723 27.2217 72.9195 27.5942 72.2138 27.5942C71.4884 27.5942 71.116 27.2805 71.116 26.6728V24.2224H70.5867V23.7715H71.116V22.8698H71.6649V23.7715H73.1548ZM74.5465 22.1641V24.242H74.5662C74.7034 23.8891 75.0955 23.7127 75.7424 23.7127C76.6833 23.7127 77.1538 24.1243 77.1538 24.9673V27.5353H76.6049V25.0065C76.6049 24.4381 76.3109 24.1636 75.7228 24.1636C75.2523 24.1636 74.9387 24.242 74.7818 24.4184C74.6249 24.5949 74.5465 24.9281 74.5465 25.4182V27.5353H73.9977V22.1641H74.5465ZM79.9179 23.7323C80.6236 23.7323 81.0745 23.8499 81.2705 24.1048C81.4862 24.34 81.5842 24.8693 81.5842 25.6926C81.5842 26.4963 81.4862 27.0257 81.2705 27.2805C81.0549 27.5158 80.604 27.653 79.9179 27.653C79.2318 27.653 78.7612 27.5353 78.5653 27.2805C78.3496 27.0452 78.2516 26.516 78.2516 25.6926C78.2516 24.8889 78.3496 24.3596 78.5653 24.1048C78.7612 23.8499 79.2122 23.7323 79.9179 23.7323ZM79.9179 24.1832C79.4278 24.1832 79.1338 24.2616 79.0161 24.4184C78.8985 24.5752 78.8397 24.9869 78.8397 25.673C78.8397 26.3395 78.8985 26.7512 79.0161 26.9276C79.1338 27.0845 79.4278 27.1629 79.9179 27.1629C80.4079 27.1629 80.7216 27.0845 80.8392 26.9276C80.9568 26.7708 81.0157 26.3591 81.0157 25.673C81.0157 25.0065 80.9568 24.5949 80.8392 24.4184C80.702 24.2616 80.4079 24.1832 79.9179 24.1832ZM85.7202 23.7715V27.5549H85.1715L85.2108 27.0648L85.1912 27.0452C84.9951 27.4177 84.5835 27.6137 83.9561 27.6137C83.074 27.6137 82.6428 27.1825 82.6428 26.3004V23.7911H83.1917V26.3004C83.1917 26.6336 83.2504 26.8689 83.3681 26.9864C83.4857 27.1041 83.7013 27.1629 84.0345 27.1629C84.4658 27.1629 84.7599 27.0845 84.9363 26.908C85.0931 26.7316 85.1715 26.4179 85.1715 25.9671V23.8107L85.7202 23.7715ZM90.1112 23.7715V27.7902C90.1112 28.3391 89.9938 28.7115 89.759 28.9272C89.5233 29.1232 89.0923 29.2408 88.465 29.2408C87.896 29.2408 87.5241 29.1624 87.3082 28.9859C87.1119 28.8096 86.9945 28.4959 86.9945 28.0059H87.5241C87.5241 28.339 87.5824 28.5351 87.7006 28.6331C87.818 28.7312 88.0725 28.7703 88.4847 28.7703C88.8961 28.7703 89.19 28.7115 89.3271 28.5744C89.4651 28.4567 89.5431 28.2018 89.5431 27.8294V27.0648H89.5233C89.3862 27.4177 88.9749 27.5942 88.2885 27.5942C87.7392 27.5942 87.3476 27.4569 87.1316 27.1825C86.9165 26.908 86.818 26.3983 86.818 25.673C86.818 24.9085 86.9165 24.3988 87.1316 24.1243C87.3476 23.8499 87.7392 23.7127 88.3279 23.7127C88.9552 23.7127 89.3468 23.9087 89.5431 24.2812H89.5628L89.5431 23.7715H90.1112ZM88.465 24.1832C88.034 24.1832 87.7589 24.2812 87.6218 24.4576C87.4847 24.634 87.4256 25.0457 87.4256 25.6535C87.4256 26.2807 87.4847 26.6728 87.6218 26.8689C87.7589 27.0452 88.034 27.1433 88.465 27.1433C88.8961 27.1433 89.19 27.0452 89.3271 26.8296C89.4651 26.6335 89.5431 26.2023 89.5431 25.5554C89.5431 24.9869 89.4651 24.6144 89.3271 24.4381C89.19 24.2812 88.8961 24.1832 88.465 24.1832ZM91.8371 22.1641V24.242H91.856C91.9939 23.8891 92.3855 23.7127 93.0325 23.7127C93.9735 23.7127 94.4439 24.1243 94.4439 24.9673V27.5353H93.8946V25.0065C93.8946 24.4381 93.6007 24.1636 93.0128 24.1636C92.5424 24.1636 92.2287 24.242 92.0719 24.4184C91.9151 24.5949 91.8371 24.9281 91.8371 25.4182V27.5353H91.2878V22.1641H91.8371ZM97.6395 23.7715V24.2224H96.1887V26.5356C96.1887 26.9473 96.3652 27.1433 96.7183 27.1433C97.0705 27.1433 97.247 26.9668 97.247 26.5944V26.4179V26.2023H97.7569V26.4767C97.7569 27.2217 97.4038 27.5942 96.6985 27.5942C95.9727 27.5942 95.6008 27.2805 95.6008 26.6728V24.2224H95.0712V23.7715H95.6008V22.8698H96.1492V23.7715H97.6395ZM101.403 24.7712H100.854C100.854 24.5165 100.796 24.34 100.697 24.2812C100.599 24.2224 100.325 24.1832 99.8744 24.1832C99.4622 24.1832 99.2077 24.2224 99.0903 24.2812C98.972 24.34 98.9137 24.5165 98.9137 24.7712C98.9137 25.1634 99.0903 25.3594 99.4622 25.379L99.9129 25.3986L100.482 25.4182C101.168 25.4574 101.501 25.8103 101.501 26.4963C101.501 26.9276 101.383 27.2021 101.168 27.3785C100.933 27.5353 100.521 27.6137 99.9129 27.6137C99.2857 27.6137 98.8743 27.5353 98.6387 27.3785C98.4039 27.2217 98.2865 26.9473 98.2865 26.5551V26.3591H98.8546V26.5356C98.8546 26.7904 98.9137 26.9473 99.0509 27.0257C99.1683 27.1041 99.4228 27.1433 99.7955 27.1433C100.246 27.1433 100.54 27.1041 100.697 27.0061C100.835 26.9276 100.913 26.7316 100.913 26.4572C100.913 26.0651 100.736 25.8691 100.364 25.8691C99.5213 25.8691 98.972 25.7907 98.6978 25.6535C98.4236 25.5162 98.3062 25.2222 98.3062 24.7712C98.3062 24.34 98.4039 24.0655 98.6198 23.9283C98.8349 23.7911 99.2471 23.7127 99.8744 23.7127C100.874 23.7127 101.383 24.0068 101.383 24.6144L101.403 24.7712ZM103.128 26.8296V27.5549H102.521V26.8296H103.128ZM104.912 26.8296V27.5549H104.305V26.8296H104.912ZM106.676 26.8296V27.5549H106.068V26.8296H106.676Z" fill="black"/>
</g>
</g>
</g>
<defs>
<clipPath id="clip0_120_69">
<rect width="120" height="30.85" fill="white"/>
</clipPath>
<clipPath id="clip1_120_69">
<rect width="120" height="30.85" fill="white"/>
</clipPath>
<clipPath id="clip2_120_69">
<rect width="119.972" height="30.85" fill="white" transform="translate(0.013916)"/>
</clipPath>
</defs>
</svg>
